<svg width="244.7" height="70.502" viewBox="0 0 244.7 70.502" xmlns="http://www.w3.org/2000/svg"><g id="svgGroup" stroke-linecap="round" fill-rule="evenodd" font-size="9pt" stroke="#ffffff" stroke-width="0.25mm" fill="#ffffff" style="stroke:#ffffff;stroke-width:0.25mm;fill:#ffffff"><path d="M 70.5 14.702 L 63.8 70.002 L 62.5 70.002 L 71.2 0.002 L 74.5 0.002 L 95.5 64.702 L 116.4 0.002 L 119.7 0.002 L 128.4 70.002 L 120.1 70.002 L 113.2 14.002 L 95.1 70.002 L 88.8 70.002 L 70.5 14.702 Z M 216.1 35.302 L 198.6 70.002 L 197.3 70.002 L 215.4 34.202 L 195.6 0.002 L 204 0.002 L 221.2 29.602 L 236.2 0.002 L 237.4 0.002 L 221.9 30.802 L 244.7 70.002 L 236.3 70.002 L 216.1 35.302 Z M 50.3 0.602 L 51.1 0.002 A 6.409 6.409 0 0 1 52.954 3.991 A 8.721 8.721 0 0 1 53 4.902 A 12.361 12.361 0 0 1 52.432 8.547 A 15.187 15.187 0 0 1 51.9 10.002 L 26.3 70.002 L 25.2 70.502 L 0 0.002 L 8.5 0.002 L 29.4 59.202 L 50.7 10.002 Q 51.8 7.502 51.8 4.802 A 7.805 7.805 0 0 0 51.625 3.096 Q 51.367 1.944 50.729 1.095 A 4.645 4.645 0 0 0 50.3 0.602 Z M 142.4 70.002 L 142.4 0.802 Q 152.369 0.114 160.27 0.018 A 206.875 206.875 0 0 1 162.8 0.002 Q 187.037 0.002 187.587 16.716 A 23.876 23.876 0 0 1 187.6 17.502 A 26.38 26.38 0 0 1 186.353 25.736 A 23.122 23.122 0 0 1 183.4 31.702 A 12.737 12.737 0 0 1 180.166 34.987 Q 178.758 35.994 176.973 36.789 A 22.436 22.436 0 0 1 176.6 36.952 A 23.165 23.165 0 0 1 171.698 38.383 Q 168.852 38.902 165.5 38.902 L 150.7 38.902 L 150.7 70.002 L 142.4 70.002 Z M 150.7 1.702 L 150.7 37.902 L 165.5 37.902 A 14.293 14.293 0 0 0 172.629 35.871 Q 178.196 32.367 179.317 22.872 A 44.203 44.203 0 0 0 179.6 17.702 A 24.476 24.476 0 0 0 179.148 12.845 Q 178.555 9.917 177.183 7.665 A 13.214 13.214 0 0 0 175.4 5.352 A 13.265 13.265 0 0 0 169.78 1.958 Q 166.791 1.002 162.9 1.002 A 107.525 107.525 0 0 0 154.253 1.363 A 125.787 125.787 0 0 0 150.7 1.702 Z" vector-effect="non-scaling-stroke"/></g></svg>